<svg width="107" height="33" viewBox="0 0 107 33" fill="none" xmlns="http://www.w3.org/2000/svg">
<path d="M1.98438 24V8.72727H8.5767C9.71023 8.72727 10.7021 8.95099 11.5522 9.39844C12.4023 9.84588 13.0636 10.4748 13.5359 11.2852C14.0082 12.0955 14.2443 13.0426 14.2443 14.1264C14.2443 15.2202 14.0007 16.1673 13.5135 16.9677C13.0313 17.7681 12.3526 18.3846 11.4776 18.8171C10.6076 19.2496 9.59091 19.4659 8.42756 19.4659H4.49006V16.2443H7.59233C8.07955 16.2443 8.49467 16.1598 8.83771 15.9908C9.18572 15.8168 9.4517 15.5707 9.63565 15.2525C9.82457 14.9343 9.91903 14.5589 9.91903 14.1264C9.91903 13.6889 9.82457 13.3161 9.63565 13.0078C9.4517 12.6946 9.18572 12.456 8.83771 12.2919C8.49467 12.1229 8.07955 12.0384 7.59233 12.0384H6.13068V24H1.98438ZM21.0977 24.2088C19.8548 24.2088 18.7908 23.9627 17.9059 23.4705C17.021 22.9734 16.3423 22.2823 15.87 21.3974C15.3977 20.5075 15.1616 19.4759 15.1616 18.3026C15.1616 17.1293 15.3977 16.1001 15.87 15.2152C16.3423 14.3253 17.021 13.6342 17.9059 13.142C18.7908 12.6449 19.8548 12.3963 21.0977 12.3963C22.3406 12.3963 23.4045 12.6449 24.2894 13.142C25.1744 13.6342 25.853 14.3253 26.3253 15.2152C26.7976 16.1001 27.0337 17.1293 27.0337 18.3026C27.0337 19.4759 26.7976 20.5075 26.3253 21.3974C25.853 22.2823 25.1744 22.9734 24.2894 23.4705C23.4045 23.9627 22.3406 24.2088 21.0977 24.2088ZM21.1275 21.1662C21.4755 21.1662 21.7763 21.0494 22.0298 20.8157C22.2834 20.582 22.4798 20.2489 22.619 19.8164C22.7582 19.3839 22.8278 18.8693 22.8278 18.2727C22.8278 17.6712 22.7582 17.1566 22.619 16.729C22.4798 16.2965 22.2834 15.9634 22.0298 15.7298C21.7763 15.4961 21.4755 15.3793 21.1275 15.3793C20.7596 15.3793 20.4439 15.4961 20.1804 15.7298C19.9169 15.9634 19.7156 16.2965 19.5763 16.729C19.4371 17.1566 19.3675 17.6712 19.3675 18.2727C19.3675 18.8693 19.4371 19.3839 19.5763 19.8164C19.7156 20.2489 19.9169 20.582 20.1804 20.8157C20.4439 21.0494 20.7596 21.1662 21.1275 21.1662ZM28.7042 24V12.5455H32.7013V14.723H32.8207C33.0295 13.9176 33.3601 13.3285 33.8125 12.9556C34.2699 12.5827 34.8043 12.3963 35.4158 12.3963C35.5948 12.3963 35.7713 12.4112 35.9453 12.4411C36.1243 12.4659 36.2958 12.5032 36.4599 12.5529V16.0653C36.256 15.9957 36.005 15.9435 35.7067 15.9087C35.4084 15.8739 35.1523 15.8565 34.9386 15.8565C34.5359 15.8565 34.1729 15.9485 33.8498 16.1325C33.5316 16.3114 33.2805 16.565 33.0966 16.8931C32.9126 17.2163 32.8207 17.5966 32.8207 18.0341V24H28.7042ZM45.1123 12.5455V15.5284H37.5654V12.5455H45.1123ZM39.0271 9.80114H43.1436V20.3161C43.1436 20.4751 43.1709 20.6094 43.2256 20.7188C43.2803 20.8232 43.3648 20.9027 43.4791 20.9574C43.5935 21.0071 43.7401 21.032 43.9191 21.032C44.0434 21.032 44.1876 21.017 44.3517 20.9872C44.5207 20.9574 44.645 20.9325 44.7245 20.9126L45.3211 23.8061C45.1372 23.8608 44.8737 23.9279 44.5306 24.0075C44.1926 24.087 43.7899 24.1392 43.3225 24.1641C42.3779 24.2138 41.585 24.1168 40.9436 23.8732C40.3023 23.6246 39.82 23.2344 39.4969 22.7024C39.1737 22.1705 39.0171 21.5043 39.0271 20.7038V9.80114ZM52.1875 24.2088C50.9446 24.2088 49.8807 23.9627 48.9957 23.4705C48.1108 22.9734 47.4322 22.2823 46.9599 21.3974C46.4876 20.5075 46.2514 19.4759 46.2514 18.3026C46.2514 17.1293 46.4876 16.1001 46.9599 15.2152C47.4322 14.3253 48.1108 13.6342 48.9957 13.142C49.8807 12.6449 50.9446 12.3963 52.1875 12.3963C53.4304 12.3963 54.4943 12.6449 55.3793 13.142C56.2642 13.6342 56.9428 14.3253 57.4151 15.2152C57.8874 16.1001 58.1236 17.1293 58.1236 18.3026C58.1236 19.4759 57.8874 20.5075 57.4151 21.3974C56.9428 22.2823 56.2642 22.9734 55.3793 23.4705C54.4943 23.9627 53.4304 24.2088 52.1875 24.2088ZM52.2173 21.1662C52.5653 21.1662 52.8661 21.0494 53.1197 20.8157C53.3732 20.582 53.5696 20.2489 53.7088 19.8164C53.848 19.3839 53.9176 18.8693 53.9176 18.2727C53.9176 17.6712 53.848 17.1566 53.7088 16.729C53.5696 16.2965 53.3732 15.9634 53.1197 15.7298C52.8661 15.4961 52.5653 15.3793 52.2173 15.3793C51.8494 15.3793 51.5337 15.4961 51.2702 15.7298C51.0067 15.9634 50.8054 16.2965 50.6662 16.729C50.527 17.1566 50.4574 17.6712 50.4574 18.2727C50.4574 18.8693 50.527 19.3839 50.6662 19.8164C50.8054 20.2489 51.0067 20.582 51.2702 20.8157C51.5337 21.0494 51.8494 21.1662 52.2173 21.1662ZM66.6548 12.5455V15.5284H58.9886V12.5455H66.6548ZM60.4503 24V12.2173C60.4503 11.2727 60.6193 10.4897 60.9574 9.86825C61.2955 9.2468 61.7727 8.78196 62.3892 8.47372C63.0057 8.16548 63.7315 8.01136 64.5668 8.01136C65.0888 8.01136 65.5959 8.05114 66.0881 8.13068C66.5852 8.21023 66.9531 8.27983 67.1918 8.33949L66.5952 11.2926C66.446 11.2479 66.272 11.2131 66.0732 11.1882C65.8743 11.1584 65.7003 11.1435 65.5511 11.1435C65.1634 11.1435 64.9023 11.2255 64.7681 11.3896C64.6339 11.5536 64.5668 11.7699 64.5668 12.0384V24H60.4503ZM73.4131 24.2088C72.1702 24.2088 71.1063 23.9627 70.2213 23.4705C69.3364 22.9734 68.6578 22.2823 68.1855 21.3974C67.7132 20.5075 67.477 19.4759 67.477 18.3026C67.477 17.1293 67.7132 16.1001 68.1855 15.2152C68.6578 14.3253 69.3364 13.6342 70.2213 13.142C71.1063 12.6449 72.1702 12.3963 73.4131 12.3963C74.656 12.3963 75.7199 12.6449 76.6048 13.142C77.4898 13.6342 78.1684 14.3253 78.6407 15.2152C79.113 16.1001 79.3492 17.1293 79.3492 18.3026C79.3492 19.4759 79.113 20.5075 78.6407 21.3974C78.1684 22.2823 77.4898 22.9734 76.6048 23.4705C75.7199 23.9627 74.656 24.2088 73.4131 24.2088ZM73.4429 21.1662C73.7909 21.1662 74.0917 21.0494 74.3453 20.8157C74.5988 20.582 74.7952 20.2489 74.9344 19.8164C75.0736 19.3839 75.1432 18.8693 75.1432 18.2727C75.1432 17.6712 75.0736 17.1566 74.9344 16.729C74.7952 16.2965 74.5988 15.9634 74.3453 15.7298C74.0917 15.4961 73.7909 15.3793 73.4429 15.3793C73.075 15.3793 72.7593 15.4961 72.4958 15.7298C72.2323 15.9634 72.031 16.2965 71.8918 16.729C71.7526 17.1566 71.683 17.6712 71.683 18.2727C71.683 18.8693 71.7526 19.3839 71.8918 19.8164C72.031 20.2489 72.2323 20.582 72.4958 20.8157C72.7593 21.0494 73.075 21.1662 73.4429 21.1662ZM85.1361 8.72727V24H81.0196V8.72727H85.1361ZM87.2335 24V12.5455H91.35V24H87.2335ZM89.2917 11.3523C88.7349 11.3523 88.2576 11.1683 87.8599 10.8004C87.4622 10.4325 87.2633 9.99006 87.2633 9.47301C87.2633 8.95597 87.4622 8.51349 87.8599 8.1456C88.2576 7.7777 88.7349 7.59375 89.2917 7.59375C89.8535 7.59375 90.3308 7.7777 90.7235 8.1456C91.1213 8.51349 91.3201 8.95597 91.3201 9.47301C91.3201 9.99006 91.1213 10.4325 90.7235 10.8004C90.3308 11.1683 89.8535 11.3523 89.2917 11.3523ZM98.9658 24.2088C97.7229 24.2088 96.659 23.9627 95.7741 23.4705C94.8891 22.9734 94.2105 22.2823 93.7382 21.3974C93.2659 20.5075 93.0297 19.4759 93.0297 18.3026C93.0297 17.1293 93.2659 16.1001 93.7382 15.2152C94.2105 14.3253 94.8891 13.6342 95.7741 13.142C96.659 12.6449 97.7229 12.3963 98.9658 12.3963C100.209 12.3963 101.273 12.6449 102.158 13.142C103.043 13.6342 103.721 14.3253 104.193 15.2152C104.666 16.1001 104.902 17.1293 104.902 18.3026C104.902 19.4759 104.666 20.5075 104.193 21.3974C103.721 22.2823 103.043 22.9734 102.158 23.4705C101.273 23.9627 100.209 24.2088 98.9658 24.2088ZM98.9957 21.1662C99.3437 21.1662 99.6444 21.0494 99.898 20.8157C100.152 20.582 100.348 20.2489 100.487 19.8164C100.626 19.3839 100.696 18.8693 100.696 18.2727C100.696 17.6712 100.626 17.1566 100.487 16.729C100.348 16.2965 100.152 15.9634 99.898 15.7298C99.6444 15.4961 99.3437 15.3793 98.9957 15.3793C98.6278 15.3793 98.3121 15.4961 98.0486 15.7298C97.7851 15.9634 97.5837 16.2965 97.4445 16.729C97.3053 17.1566 97.2357 17.6712 97.2357 18.2727C97.2357 18.8693 97.3053 19.3839 97.4445 19.8164C97.5837 20.2489 97.7851 20.582 98.0486 20.8157C98.3121 21.0494 98.6278 21.1662 98.9957 21.1662Z" fill="white"/>
</svg>
